<svg xmlns="http://www.w3.org/2000/svg" width="33" height="29" viewBox="0 0 33 29" fill="none">
    <path d="M5.77412 3.91804C7.83625 2.68076 10.2287 1.97997 12.7853 1.97997L22.3953 1.23728C22.6836 0.82485 23.0139 0.412425 23.3442 0L12.8694 0.82485H12.8275C7.38392 0.82485 2.7231 4.24831 0.867188 9.03128C2.0207 6.92886 3.71216 5.15515 5.77412 3.91804Z" fill="black"/>
    <path d="M24.2915 9.69191C24.2915 9.65002 24.2915 9.65002 24.3334 9.60974C24.3334 9.56786 24.3753 9.56786 24.3753 9.52758C24.3753 9.48569 24.4172 9.48569 24.4172 9.44542C24.459 9.40353 24.459 9.40353 24.4993 9.40353C24.5412 9.40353 24.5412 9.40353 24.5412 9.36164H24.5831C24.625 9.36164 24.625 9.36165 24.6653 9.31976H24.7474L24.7458 9.32137L27.5506 9.52758C28.5817 6.88872 28.5817 4.24813 27.5506 1.60944L12.8675 2.76456H12.8256C5.7323 2.80483 0 8.57892 0 15.6302C0 22.7234 5.73188 28.4574 12.8272 28.4574C19.9205 28.4574 25.6545 22.7255 25.6545 15.6302C25.6545 13.6502 25.2002 11.754 24.3351 9.93828V9.89639C24.3351 9.8545 24.2932 9.8545 24.2932 9.81423V9.73206V9.69018C24.2916 9.73368 24.2915 9.69191 24.2915 9.69191ZM12.8273 25.282C7.50787 25.282 3.17741 20.9515 3.17741 15.6321C3.1758 10.311 7.50622 5.98049 12.8273 5.98049C18.1468 5.98049 22.4772 10.311 22.4772 15.6304C22.4772 20.9515 18.1468 25.282 12.8273 25.282Z" fill="black"/>
    <path d="M12.828 6.84717C7.96101 6.84717 4.04297 10.8071 4.04297 15.6322C4.04297 20.4993 8.00291 24.4173 12.828 24.4173C17.653 24.4173 21.6131 20.4574 21.6131 15.6322C21.6115 10.8056 17.6532 6.84717 12.828 6.84717ZM13.735 9.36201C14.9304 9.52634 16.0453 10.0226 16.9104 10.8055C15.591 11.5482 14.6001 12.249 13.8993 12.9498C13.5691 12.8257 13.1986 12.7436 12.8264 12.7436C12.7023 12.7436 12.6202 12.7855 12.4961 12.7855C12.538 11.8365 12.7442 10.7233 13.1148 9.32174L13.735 9.36201ZM11.631 12.9498C11.1767 13.156 10.8062 13.4444 10.5178 13.7746C9.89916 13.1141 9.23862 12.1668 8.53782 10.8877C9.52698 9.98065 10.8062 9.36201 12.2496 9.27986C11.8791 10.7652 11.6729 11.9606 11.631 12.9498ZM13.9815 18.3113C14.3939 18.1051 14.8064 17.8167 15.0947 17.4446C15.7134 18.1051 16.3739 19.0524 17.0747 20.3315C16.0855 21.2385 14.8064 21.8169 13.3629 21.9393C13.735 20.4974 13.9412 19.3021 13.9815 18.3113ZM14.642 13.3622C15.3428 12.7017 16.2917 12.083 17.529 11.3822C18.436 12.3714 19.0547 13.6925 19.1368 15.0941C17.6933 14.7235 16.4561 14.5173 15.4669 14.4754C15.3026 14.0227 15.0126 13.6522 14.642 13.3622ZM10.1054 14.5592C9.98132 14.8894 9.89916 15.26 9.89916 15.6321C9.89916 15.7562 9.94104 15.8384 9.94104 15.9624C8.99213 15.9205 7.87892 15.7143 6.47733 15.3438C6.5595 13.9003 7.09597 12.6211 7.96272 11.59C8.74406 12.9095 9.44487 13.8584 10.1054 14.5592ZM10.1473 16.7856C10.3535 17.2399 10.6418 17.6105 10.9721 17.8988C10.2713 18.5175 9.36431 19.178 8.08513 19.8788C7.17812 18.8896 6.59974 17.6105 6.47733 16.167C7.96111 16.5794 9.15649 16.7856 10.1473 16.7856ZM8.74406 20.4974C10.0635 19.7547 11.0543 19.054 11.7551 18.3532C12.0854 18.4772 12.4559 18.5594 12.8281 18.5594C12.9521 18.5594 13.0343 18.5175 13.1583 18.5175C13.1164 19.4664 12.9102 20.5796 12.4978 21.9812C11.0543 21.9007 9.77512 21.3642 8.74406 20.4974ZM15.5491 16.7035C15.6731 16.3732 15.7553 16.0027 15.7553 15.6305C15.7553 15.5483 15.7134 15.4243 15.7134 15.3002C16.6623 15.3421 17.8174 15.5483 19.1771 15.9608C19.0949 17.4043 18.5585 18.6834 17.6917 19.7145C16.9104 18.3951 16.2096 17.4043 15.5491 16.7035Z" fill="black"/>
    <path d="M32.418 1.36144C32.2537 0.784703 31.7173 0.372278 31.1389 0.412531L28.0038 0.618743C28.0457 0.742793 28.0859 0.866842 28.1681 0.949005C28.1681 0.990891 28.21 0.990891 28.21 1.03117C29.4892 4.0422 29.4892 7.13547 28.21 10.1466H28.1681C28.1681 10.1885 28.1262 10.1885 28.1262 10.2287H28.1681C28.1262 10.3528 28.0859 10.435 28.0038 10.559L31.097 10.7652C31.6737 10.8071 32.2521 10.3947 32.3761 9.81632C33.201 7.0534 33.201 4.16634 32.418 1.36144Z" fill="black"/>
</svg>