<svg xmlns="http://www.w3.org/2000/svg" width="33" height="34" viewBox="0 0 33 34" fill="none">
    <path d="M15.2209 0.0839964C11.2731 0.559976 7.61925 2.3799 4.86136 5.22178C2.15948 8.02166 0.507546 11.4935 0.0735646 15.3433C0.0175669 15.8473 -0.0104319 16.3373 0.00356753 16.4353C0.0455658 16.6033 0.0595652 16.6033 0.703538 16.6033C3.23743 16.6173 7.99723 16.6033 8.05323 16.5753C8.08123 16.5613 8.13723 16.2953 8.17922 16.0013C8.27722 15.2874 8.48721 14.5594 8.7672 13.8454C9.90115 11.0175 12.547 8.81963 15.4869 8.28765C16.4809 8.10566 16.4809 8.10566 16.5649 7.93766C16.6349 7.81167 16.6489 6.92971 16.6349 3.97583C16.6209 0.293988 16.6069 0.167993 16.4949 0.0839964C16.3549 -0.0279988 16.1589 -0.0279988 15.2209 0.0839964Z" fill="black"/>
    <path d="M17.9505 2.32349C17.9505 3.27545 17.8665 3.17746 18.7625 3.24745C20.4984 3.38745 22.6543 4.08742 24.3062 5.05338C28.3241 7.39128 30.9139 11.4511 31.3199 16.0149C31.6419 19.4728 30.648 22.9166 28.5341 25.7585C27.9461 26.5565 26.5601 27.9424 25.7482 28.5444C20.1624 32.7022 12.5047 32.2542 7.50694 27.4664C6.48498 26.4865 5.74301 25.5345 5.00104 24.2606C4.04908 22.6366 3.33511 20.3967 3.20912 18.6608C3.19512 18.3528 3.15312 18.0728 3.12512 18.0308C3.06912 17.9468 2.80313 17.9328 2.03317 17.9468L1.44519 17.9608L1.47319 18.2968C1.72518 20.8027 2.13116 22.3006 3.08312 24.2746C4.90305 27.9844 8.2769 30.9523 12.1687 32.2402C14.0307 32.8562 15.2346 33.0522 17.2085 33.0522C19.8264 33.0522 21.8563 32.5902 24.1522 31.4703C25.7622 30.6863 27.0921 29.7343 28.3801 28.4324C29.682 27.1304 30.634 25.8145 31.4179 24.2046C32.5379 21.9087 32.9999 19.8647 32.9999 17.2609C32.9999 14.573 32.4679 12.3471 31.2499 10.0232C28.702 5.13737 23.8302 1.93151 18.3145 1.52553L17.9085 1.49753V2.32349H17.9505Z" fill="black"/>
    <path d="M16.3122 9.43637C14.8983 9.61836 13.5403 10.1923 12.4204 11.0463C11.8884 11.4663 11.0624 12.3482 10.6844 12.9222C9.77447 14.3362 9.39648 15.6101 9.39648 17.276C9.39648 19.4739 10.1525 21.2799 11.7064 22.8478C13.2603 24.4017 15.0802 25.1577 17.2782 25.1577C19.4761 25.1577 21.282 24.4017 22.8499 22.8478C24.4179 21.2799 25.1598 19.4879 25.1598 17.276C25.1598 15.0781 24.4039 13.2722 22.8499 11.7043C21.366 10.2063 19.6301 9.45037 17.5161 9.38037C17.0962 9.38037 16.5642 9.39437 16.3122 9.43637ZM17.8241 11.1303C18.0761 11.2563 18.2581 11.5083 18.3421 11.8163C18.5381 12.5582 17.8101 13.3142 17.0682 13.1042C16.5502 12.9642 16.2562 12.5862 16.2562 12.0683C16.2562 11.4523 16.6762 11.0323 17.2922 11.0323C17.4881 11.0323 17.7261 11.0883 17.8241 11.1303ZM13.2043 13.6782C13.8763 13.9862 14.0583 14.7841 13.5823 15.3581C13.3583 15.6101 13.0923 15.7081 12.6863 15.6801C12.0844 15.6241 11.7344 15.2461 11.7344 14.6021C11.7344 14.1962 11.9304 13.9022 12.3224 13.6922C12.6723 13.5242 12.8543 13.5242 13.2043 13.6782ZM22.2899 13.7762C22.8639 14.0842 23.0459 14.8261 22.6539 15.3441C22.1779 15.9601 21.338 15.9181 20.876 15.2461C20.75 15.0641 20.722 14.9521 20.75 14.6581C20.778 14.2242 20.974 13.9162 21.338 13.7482C21.702 13.5802 21.954 13.5942 22.2899 13.7762ZM18.3141 15.0361C18.8461 15.2881 19.2661 15.7081 19.5321 16.2541C19.7141 16.6461 19.7421 16.7581 19.7421 17.262C19.7421 17.78 19.7141 17.892 19.5321 18.27C19.2801 18.816 18.8461 19.25 18.3001 19.5019C17.9081 19.6839 17.7961 19.7119 17.2922 19.7119C16.7882 19.7119 16.6622 19.6839 16.2842 19.5019C15.7382 19.25 15.3042 18.816 15.0522 18.27C14.8703 17.878 14.8423 17.766 14.8423 17.262C14.8423 16.7441 14.8703 16.6321 15.0522 16.2541C15.3882 15.5541 16.0182 15.0221 16.7322 14.8401C17.1522 14.7421 17.8521 14.8261 18.3141 15.0361ZM13.3023 18.942C13.4143 19.026 13.5823 19.194 13.6663 19.3059C13.7923 19.4879 13.8203 19.5999 13.7923 19.8939C13.7643 20.3559 13.5403 20.6639 13.1203 20.8179C11.9164 21.2799 11.0904 19.5859 12.2104 18.9C12.5184 18.746 13.0223 18.746 13.3023 18.942ZM22.2619 18.97C22.5839 19.124 22.7659 19.4039 22.7939 19.8099C22.8359 20.3839 22.5839 20.7759 22.024 20.9299C21.534 21.0839 20.974 20.7759 20.764 20.2579C20.582 19.7959 20.764 19.236 21.184 18.984C21.464 18.83 21.954 18.816 22.2619 18.97ZM17.6701 21.5039C18.7341 21.9938 18.4121 23.5198 17.2502 23.5198C16.0882 23.5198 15.7662 21.9938 16.8302 21.5039C16.9842 21.4339 17.1662 21.3779 17.2502 21.3779C17.3342 21.3779 17.5161 21.4339 17.6701 21.5039Z" fill="black"/>
</svg>