<svg xmlns="http://www.w3.org/2000/svg" width="28" height="16" viewBox="0 0 28 16" fill="none">
    <path d="M19.0909 0L22.9091 5.09091H25.4545C26.8673 5.09091 28 6.22364 28 7.63636V11.4545H25.4545C25.4545 13.5673 23.7491 15.2727 21.6364 15.2727C19.5236 15.2727 17.8182 13.5673 17.8182 11.4545H10.1818C10.1818 13.5673 8.47636 15.2727 6.36364 15.2727C4.25091 15.2727 2.54545 13.5673 2.54545 11.4545H0V7.63636C0 6.22364 1.13273 5.09091 2.54545 5.09091L6.36364 0H19.0909ZM12.0909 1.90909H7.31818L4.91273 5.09091H12.0909V1.90909ZM14 1.90909V5.09091H20.5418L18.1364 1.90909H14ZM6.36364 9.54545C5.30727 9.54545 4.45455 10.3982 4.45455 11.4545C4.45455 12.5109 5.30727 13.3636 6.36364 13.3636C7.42 13.3636 8.27273 12.5109 8.27273 11.4545C8.27273 10.3982 7.42 9.54545 6.36364 9.54545ZM21.6364 9.54545C20.58 9.54545 19.7273 10.3982 19.7273 11.4545C19.7273 12.5109 20.58 13.3636 21.6364 13.3636C22.6927 13.3636 23.5455 12.5109 23.5455 11.4545C23.5455 10.3982 22.6927 9.54545 21.6364 9.54545Z" fill="white"/>
</svg>