<svg class="w-[1.7vw] h-[1.7vw]" height="8.4666mm"
   style="shape-rendering:geometricPrecision; text-rendering:geometricPrecision; image-rendering:optimizeQuality; fill-rule:evenodd; clip-rule:evenodd"
   version="1.1" viewBox="0 0 846.66 846.66" width="8.4666mm" xml:space="preserve" xmlns="http://www.w3.org/2000/svg"
   xmlns:xlink="http://www.w3.org/1999/xlink">
   <defs>
   </defs>
   <g id="Layer_x0020_1">
      <path class="fil0"
         d="M652.73 649.32l0 166.42c0,18.73 -22.85,27.54 -35.55,14.29l-196.15 -180.71 -165.38 0c-51.56,0 -93.66,-42.1 -93.66,-93.66l0 -360.47c0,-51.55 42.1,-93.65 93.66,-93.65l469.97 0c51.56,0 93.66,42.09 93.66,93.65l0 360.47c0,51.56 -42.1,93.66 -93.66,93.66l-72.89 0zm-334.34 -322.96c19.53,0 35.36,15.83 35.36,35.36 0,19.53 -15.83,35.36 -35.36,35.36 -19.53,0 -35.36,-15.83 -35.36,-35.36 0,-19.53 15.83,-35.36 35.36,-35.36zm344.49 0c19.53,0 35.36,15.83 35.36,35.36 0,19.53 -15.83,35.36 -35.36,35.36 -19.53,0 -35.36,-15.83 -35.36,-35.36 0,-19.53 15.83,-35.36 35.36,-35.36zm-114.83 0c19.53,0 35.36,15.83 35.36,35.36 0,19.53 -15.83,35.36 -35.36,35.36 -19.53,0 -35.36,-15.83 -35.36,-35.36 0,-19.53 15.83,-35.36 35.36,-35.36zm-114.83 0c19.53,0 35.36,15.83 35.36,35.36 0,19.53 -15.83,35.36 -35.36,35.36 -19.53,0 -35.36,-15.83 -35.36,-35.36 0,-19.53 15.83,-35.36 35.36,-35.36zm-312.18 190.39c27.16,0 27.16,41.31 0,41.31 -51.56,0 -93.66,-42.1 -93.66,-93.66l0 -360.47c0,-51.55 42.1,-93.65 93.66,-93.65l469.98 0c27.16,0 27.16,41.3 0,41.3l-469.98 0c-28.75,0 -52.35,23.6 -52.35,52.35l0 360.47c0,28.75 23.6,52.35 52.35,52.35zm490.39 251.94l0 -140.03c0,-11.4 9.25,-20.65 20.65,-20.65l93.54 0c28.75,0 52.36,-23.6 52.36,-52.35l0 -360.47c0,-28.75 -23.61,-52.35 -52.36,-52.35l-469.97 0c-28.76,0 -52.36,23.6 -52.36,52.35l0 360.47c0,28.75 23.6,52.35 52.36,52.35l173.38 0.05c4.99,0 10,1.79 13.96,5.44l168.44 155.19z" />
   </g>
</svg>