<svg xmlns="http://www.w3.org/2000/svg" width="33" height="30" viewBox="0 0 33 30" fill="none">
    <path d="M1.8916 21.6501V22.21V25.3823V25.8815C1.8916 26.7629 2.58756 27.4853 3.45891 27.5286V20.0029C2.58756 20.0462 1.8916 20.7686 1.8916 21.6501Z" fill="black"/>
    <path d="M4.26367 18.3581V19.5983V27.9334V29.2348C6.81371 29.4059 8.76167 28.1133 9.27478 27.7336V19.8575C8.76434 19.4758 6.82931 18.1823 4.26367 18.3581ZM8.16957 27.2386H5.28006C5.05744 27.2386 4.87755 27.0581 4.87755 26.8355C4.87755 26.6129 5.05744 26.4325 5.28006 26.4325H8.16957C8.39219 26.4325 8.57208 26.6129 8.57208 26.8355C8.57208 27.0581 8.39219 27.2386 8.16957 27.2386ZM8.16957 25.2126H5.28006C5.05744 25.2126 4.87755 25.0321 4.87755 24.8095C4.87755 24.5869 5.05744 24.4064 5.28006 24.4064H8.16957C8.39219 24.4064 8.57208 24.5869 8.57208 24.8095C8.57208 25.0321 8.39219 25.2126 8.16957 25.2126ZM8.16957 23.1865H5.28006C5.05744 23.1865 4.87755 23.0061 4.87755 22.7835C4.87755 22.5608 5.05744 22.3804 5.28006 22.3804H8.16957C8.39219 22.3804 8.57208 22.5608 8.57208 22.7835C8.57208 23.0061 8.39219 23.1865 8.16957 23.1865ZM8.16957 20.3544C8.39219 20.3544 8.57208 20.5348 8.57208 20.7574C8.57208 20.98 8.39219 21.1605 8.16957 21.1605H5.28006C5.05744 21.1605 4.87755 20.98 4.87755 20.7574C4.87755 20.5348 5.05744 20.3544 5.28006 20.3544H8.16957Z" fill="black"/>
    <path d="M12.3347 8.89995C12.1999 8.91408 12.0595 8.9223 11.9132 8.9223C11.6895 8.9223 11.4545 8.90544 11.2139 8.87114C10.8063 8.81254 10.4352 8.70488 10.1133 8.56982L8.51758 18.4559C9.14636 18.7709 9.59412 19.0847 9.80401 19.2453C10.0936 19.2235 10.3862 19.2103 10.6788 19.1973L12.3347 8.89995Z" fill="black"/>
    <path d="M1.0861 22.6128H0V24.9789H1.0861V22.6128Z" fill="black"/>
    <path d="M33.0002 23.0044H32.0029V24.538H33.0002V23.0044Z" fill="black"/>
    <path d="M29.8096 25.3871V25.3994H31.1981V24.9407V22.601V22.1929H29.8096V25.3871Z" fill="black"/>
    <path d="M23.0547 26.4418C25.7953 26.4413 26.6955 26.0699 26.9235 25.9309V25.3873V22.1549V21.6388C26.7539 21.5466 25.8867 21.1411 23.0547 21.1598V26.4418Z" fill="black"/>
    <path d="M10.0791 20.0382V27.5536C15.1936 27.8919 20.8786 26.7965 22.2488 26.5095V21.0761C20.716 20.7646 15.1231 19.7065 10.0791 20.0382ZM14.4966 21.1545H19.1434C19.366 21.1545 19.5459 21.335 19.5459 21.5576C19.5459 21.7802 19.366 21.9607 19.1434 21.9607H14.4966C14.274 21.9607 14.0941 21.7802 14.0941 21.5576C14.0941 21.335 14.274 21.1545 14.4966 21.1545ZM14.4966 23.1778H19.1434C19.366 23.1778 19.5459 23.3582 19.5459 23.5808C19.5459 23.8034 19.366 23.9839 19.1434 23.9839H14.4966C14.274 23.9839 14.0941 23.8034 14.0941 23.5808C14.0941 23.3582 14.274 23.1778 14.4966 23.1778ZM14.4966 25.2015H19.1434C19.366 25.2015 19.5459 25.382 19.5459 25.6046C19.5459 25.8272 19.366 26.0077 19.1434 26.0077H14.4966C14.274 26.0077 14.0941 25.8272 14.0941 25.6046C14.0941 25.382 14.274 25.2015 14.4966 25.2015Z" fill="black"/>
    <path d="M29.0046 22.5576H27.7285V24.9839H29.0046V22.5576Z" fill="black"/>
    <path d="M14.3886 0.788713C13.8512 0.415437 13.1901 0.164151 12.4772 0.0623999C12.1827 0.0196758 11.8903 0 11.6048 0C9.91604 0 8.47915 0.704951 8.33637 1.70279C8.22506 2.48082 9.14026 3.54443 10.0903 4.12289C10.2275 4.20665 10.3017 4.36462 10.2792 4.52428L9.85757 7.46495C9.86741 7.49502 9.92728 7.54983 10.014 7.61251C10.0162 7.61385 10.0183 7.61511 10.0204 7.61644C10.234 7.76907 10.6605 7.97728 11.3282 8.07264C12.2737 8.20812 12.8494 7.99225 12.918 7.88375L13.3329 4.9622C13.3565 4.80311 13.4711 4.67212 13.6274 4.63052C14.6843 4.34607 15.4129 3.67541 15.5264 2.88052C15.6332 2.13959 15.2071 1.35762 14.3886 0.788713ZM12.954 1.41946C12.9 1.63533 12.6841 1.76912 12.4638 1.71178C11.6947 1.51671 10.8998 1.6432 10.4433 2.03165C10.3669 2.09574 10.2747 2.12722 10.1825 2.12722C10.0678 2.12722 9.95427 2.07887 9.87556 1.98443C9.73165 1.81466 9.75189 1.56056 9.92166 1.41665C10.5816 0.856734 11.6306 0.669535 12.6616 0.930377C12.8764 0.984907 13.0079 1.20359 12.954 1.41946Z" fill="black"/>
</svg>