<svg class="w-full h-full" width="15" height="14" viewBox="0 0 15 14" fill="none" xmlns="http://www.w3.org/2000/svg">
<path d="M8.80793 1.09075L8.11812 0.400945C7.82604 0.108865 7.35374 0.108865 7.06477 0.400945L1.02429 6.43832C0.732204 6.7304 0.732204 7.2027 1.02429 7.49168L7.06477 13.5322C7.35685 13.8242 7.82915 13.8242 8.11812 13.5322L8.80793 12.8424C9.10312 12.5472 9.09691 12.0655 8.7955 11.7766L5.05127 8.20945H13.9815C14.3948 8.20945 14.7272 7.87698 14.7272 7.46371V6.46939C14.7272 6.05613 14.3948 5.72366 13.9815 5.72366H5.05127L8.7955 2.15654C9.10001 1.86756 9.10623 1.38594 8.80793 1.09075Z" fill="white"/>
</svg>
