<svg class="w-[1.5vw] h-[1.5vw]" xmlns="http://www.w3.org/2000/svg" xmlns:xlink="http://www.w3.org/1999/xlink" xmlns:serif="http://www.serif.com/" width="100%" height="100%" viewBox="0 0 512 512" version="1.1" xml:space="preserve" style="fill-rule:evenodd;clip-rule:evenodd;stroke-linejoin:round;stroke-miterlimit:2;"><g transform="matrix(1,0,0,1,-1124,-1124)"><g id="Icons"><path d="M1532.38,1606.39L1546.03,1623.16C1547.04,1624.4 1548.58,1625.08 1550.18,1624.99C1551.78,1624.9 1553.24,1624.06 1554.11,1622.71L1574.78,1590.74C1576.27,1588.42 1575.61,1585.32 1573.29,1583.82C1570.97,1582.33 1567.88,1582.99 1566.38,1585.31L1549.44,1611.51C1549.44,1611.51 1540.14,1600.08 1540.14,1600.08C1538.4,1597.93 1535.24,1597.61 1533.1,1599.35C1530.96,1601.1 1530.64,1604.25 1532.38,1606.39ZM1374.05,1604.01L1365.47,1617.29C1363.97,1619.6 1364.63,1622.7 1366.95,1624.2C1369.27,1625.7 1372.37,1625.03 1373.87,1622.71L1380,1613.22L1386.13,1622.71C1387.63,1625.03 1390.73,1625.7 1393.05,1624.2C1395.37,1622.7 1396.03,1619.6 1394.53,1617.29L1385.95,1604.01L1394.53,1590.74C1396.03,1588.42 1395.37,1585.32 1393.05,1583.82C1390.73,1582.33 1387.63,1582.99 1386.13,1585.31L1380,1594.8L1373.87,1585.31C1372.37,1582.99 1369.27,1582.33 1366.95,1583.82C1364.63,1585.32 1363.97,1588.42 1365.47,1590.74L1374.05,1604.01ZM1206.58,1594.8L1200.45,1585.31C1198.95,1582.99 1195.85,1582.33 1193.53,1583.82C1191.22,1585.32 1190.55,1588.42 1192.05,1590.74L1200.63,1604.01L1192.05,1617.29C1190.55,1619.6 1191.22,1622.7 1193.53,1624.2C1195.85,1625.7 1198.95,1625.03 1200.45,1622.71L1206.58,1613.22L1212.72,1622.71C1214.21,1625.03 1217.31,1625.7 1219.63,1624.2C1221.95,1622.7 1222.61,1619.6 1221.12,1617.29L1212.54,1604.01L1221.12,1590.74C1222.61,1588.42 1221.95,1585.32 1219.63,1583.82C1217.31,1582.33 1214.21,1582.99 1212.72,1585.31L1206.58,1594.8ZM1609.99,1524.11C1609.99,1510.84 1599.22,1500.07 1585.95,1500.07C1585.95,1500.07 1520.89,1500.07 1520.89,1500.07C1507.62,1500.07 1496.85,1510.84 1496.85,1524.11C1496.85,1524.11 1496.85,1569.18 1496.85,1569.18C1496.85,1571.94 1499.09,1574.18 1501.85,1574.18L1604.99,1574.18C1607.75,1574.18 1609.99,1571.94 1609.99,1569.18L1609.99,1524.11ZM1263.15,1524.11C1263.15,1510.84 1252.38,1500.07 1239.11,1500.07C1239.11,1500.07 1174.05,1500.07 1174.05,1500.07C1160.78,1500.07 1150.01,1510.84 1150.01,1524.11C1150.01,1524.11 1150.01,1569.18 1150.01,1569.18C1150.01,1571.94 1152.25,1574.18 1155.01,1574.18L1258.15,1574.18C1260.91,1574.18 1263.15,1571.94 1263.15,1569.18L1263.15,1524.11ZM1436.57,1524.11C1436.57,1510.84 1425.8,1500.07 1412.53,1500.07C1412.53,1500.07 1347.47,1500.07 1347.47,1500.07C1334.2,1500.07 1323.43,1510.84 1323.43,1524.11L1323.43,1569.18C1323.43,1571.94 1325.67,1574.18 1328.43,1574.18L1431.57,1574.18C1434.33,1574.18 1436.57,1571.94 1436.57,1569.18L1436.57,1524.11ZM1239.9,1564.18L1253.15,1564.18L1253.15,1524.11C1253.15,1516.36 1246.86,1510.07 1239.11,1510.07L1174.05,1510.07C1166.3,1510.07 1160.01,1516.36 1160.01,1524.11C1160.01,1524.11 1160.01,1564.18 1160.01,1564.18L1173.26,1564.18L1173.26,1549.17C1173.26,1546.41 1175.5,1544.17 1178.26,1544.17C1181.02,1544.17 1183.26,1546.41 1183.26,1549.17L1183.26,1564.18L1229.9,1564.18L1229.9,1549.17C1229.9,1546.41 1232.14,1544.17 1234.9,1544.17C1237.66,1544.17 1239.9,1546.41 1239.9,1549.17L1239.9,1564.18ZM1413.32,1564.18L1426.57,1564.18L1426.57,1524.11C1426.57,1516.36 1420.28,1510.07 1412.53,1510.07L1347.47,1510.07C1339.72,1510.07 1333.43,1516.36 1333.43,1524.11C1333.43,1524.11 1333.43,1564.18 1333.43,1564.18L1346.68,1564.18L1346.68,1549.17C1346.68,1546.41 1348.92,1544.17 1351.68,1544.17C1354.44,1544.17 1356.68,1546.41 1356.68,1549.17L1356.68,1564.18L1403.32,1564.18L1403.32,1549.17C1403.32,1546.41 1405.56,1544.17 1408.32,1544.17C1411.08,1544.17 1413.32,1546.41 1413.32,1549.17L1413.32,1564.18ZM1586.74,1564.18L1599.99,1564.18L1599.99,1524.11C1599.99,1516.36 1593.7,1510.07 1585.95,1510.07L1520.89,1510.07C1513.14,1510.07 1506.85,1516.36 1506.85,1524.11C1506.85,1524.11 1506.85,1564.18 1506.85,1564.18L1520.1,1564.18L1520.1,1549.17C1520.1,1546.41 1522.34,1544.17 1525.1,1544.17C1527.86,1544.17 1530.1,1546.41 1530.1,1549.17L1530.1,1564.18L1576.74,1564.18L1576.74,1549.17C1576.74,1546.41 1578.98,1544.17 1581.74,1544.17C1584.5,1544.17 1586.74,1546.41 1586.74,1549.17L1586.74,1564.18ZM1206.58,1423.34C1185.75,1423.34 1168.83,1440.25 1168.83,1461.09C1168.83,1481.92 1185.75,1498.84 1206.58,1498.84C1227.41,1498.84 1244.33,1481.92 1244.33,1461.09C1244.33,1440.25 1227.41,1423.34 1206.58,1423.34ZM1380,1423.34C1359.17,1423.34 1342.25,1440.25 1342.25,1461.09C1342.25,1481.92 1359.17,1498.84 1380,1498.84C1400.83,1498.84 1417.75,1481.92 1417.75,1461.09C1417.75,1440.25 1400.83,1423.34 1380,1423.34ZM1553.42,1423.34C1532.59,1423.34 1515.67,1440.25 1515.67,1461.09C1515.67,1481.92 1532.59,1498.84 1553.42,1498.84C1574.25,1498.84 1591.17,1481.92 1591.17,1461.09C1591.17,1440.25 1574.25,1423.34 1553.42,1423.34ZM1553.42,1433.34C1568.73,1433.34 1581.17,1445.77 1581.17,1461.09C1581.17,1476.4 1568.73,1488.84 1553.42,1488.84C1538.1,1488.84 1525.67,1476.4 1525.67,1461.09C1525.67,1445.77 1538.1,1433.34 1553.42,1433.34ZM1380,1433.34C1395.31,1433.34 1407.75,1445.77 1407.75,1461.09C1407.75,1476.4 1395.31,1488.84 1380,1488.84C1364.69,1488.84 1352.25,1476.4 1352.25,1461.09C1352.25,1445.77 1364.69,1433.34 1380,1433.34ZM1206.58,1433.34C1221.9,1433.34 1234.33,1445.77 1234.33,1461.09C1234.33,1476.4 1221.9,1488.84 1206.58,1488.84C1191.27,1488.84 1178.83,1476.4 1178.83,1461.09C1178.83,1445.77 1191.27,1433.34 1206.58,1433.34ZM1375,1378.87L1206.58,1378.87L1206.55,1378.87L1206.52,1378.88L1206.49,1378.88L1206.45,1378.88C1204.59,1378.92 1202.98,1379.99 1202.16,1381.55L1202.14,1381.57L1202.13,1381.6L1202.12,1381.63L1202.1,1381.65L1202.09,1381.68L1202.08,1381.71L1202.06,1381.74L1202.05,1381.76L1202.04,1381.79L1202.02,1381.82L1202.01,1381.85L1202,1381.87L1201.99,1381.9L1201.98,1381.93L1201.96,1381.96L1201.95,1381.99L1201.94,1382.01L1201.93,1382.04L1201.92,1382.07L1201.91,1382.1L1201.9,1382.13L1201.88,1382.16L1201.88,1382.18L1201.86,1382.21L1201.85,1382.24L1201.84,1382.27L1201.84,1382.3L1201.83,1382.33L1201.82,1382.36L1201.81,1382.39L1201.8,1382.42L1201.79,1382.45L1201.78,1382.48L1201.77,1382.51L1201.76,1382.54L1201.76,1382.57L1201.75,1382.6L1201.74,1382.62L1201.73,1382.65L1201.72,1382.68L1201.72,1382.72L1201.71,1382.75L1201.7,1382.78L1201.7,1382.81L1201.69,1382.84L1201.68,1382.87L1201.68,1382.9L1201.67,1382.93L1201.66,1382.96L1201.66,1382.99L1201.65,1383.02L1201.65,1383.05L1201.64,1383.08L1201.64,1383.11L1201.63,1383.14L1201.63,1383.18L1201.63,1383.21L1201.62,1383.24L1201.62,1383.27L1201.61,1383.3L1201.61,1383.33L1201.61,1383.36L1201.6,1383.39L1201.6,1383.43L1201.6,1383.46L1201.6,1383.49L1201.59,1383.52L1201.59,1383.55L1201.59,1383.59L1201.59,1383.62L1201.59,1383.65L1201.59,1383.68L1201.58,1383.71L1201.58,1383.75L1201.58,1383.78L1201.58,1383.81L1201.58,1383.84L1201.58,1383.87L1201.58,1399.16C1201.58,1401.92 1203.82,1404.16 1206.58,1404.16C1209.34,1404.16 1211.58,1401.92 1211.58,1399.16L1211.58,1388.87L1375,1388.87L1375,1399.16C1375,1401.92 1377.24,1404.16 1380,1404.16C1382.76,1404.16 1385,1401.92 1385,1399.16L1385,1388.87L1548.42,1388.87L1548.42,1399.16C1548.42,1401.92 1550.66,1404.16 1553.42,1404.16C1556.18,1404.16 1558.42,1401.92 1558.42,1399.16L1558.42,1383.87C1558.42,1381.28 1556.43,1379.14 1553.9,1378.9L1553.87,1378.89L1553.84,1378.89L1553.8,1378.89L1553.77,1378.89L1553.74,1378.88L1553.71,1378.88L1553.68,1378.88L1553.64,1378.88L1553.61,1378.88L1553.58,1378.88L1553.55,1378.88L1553.52,1378.88L1553.48,1378.88L1553.45,1378.87L1553.42,1378.87L1385,1378.87L1385,1340.06C1385,1337.3 1382.76,1335.06 1380,1335.06C1377.24,1335.06 1375,1337.3 1375,1340.06L1375,1378.87ZM1423.36,1237.27L1336.64,1237.27C1319.88,1237.27 1306.27,1250.87 1306.27,1267.64L1306.27,1327.7C1306.27,1330.47 1308.51,1332.7 1311.27,1332.7L1448.73,1332.7C1451.49,1332.7 1453.73,1330.47 1453.73,1327.7L1453.73,1267.64C1453.73,1250.87 1440.12,1237.27 1423.36,1237.27ZM1404.36,1247.27L1404.36,1261.61C1404.36,1264.37 1402.12,1266.61 1399.36,1266.61L1394.87,1266.61L1384.77,1298.48C1384.11,1300.56 1382.18,1301.97 1380,1301.97C1377.82,1301.97 1375.89,1300.56 1375.23,1298.48L1365.13,1266.61L1360.64,1266.61C1357.88,1266.61 1355.64,1264.37 1355.64,1261.61L1355.64,1247.27L1336.64,1247.27C1325.4,1247.27 1316.27,1256.39 1316.27,1267.64C1316.27,1267.64 1316.27,1322.7 1316.27,1322.7L1337.26,1322.7L1337.26,1301.04C1337.26,1298.28 1339.5,1296.04 1342.26,1296.04C1345.02,1296.04 1347.26,1298.28 1347.26,1301.04L1347.26,1322.7L1412.74,1322.7L1412.74,1301.04C1412.74,1298.28 1414.98,1296.04 1417.74,1296.04C1420.5,1296.04 1422.74,1298.28 1422.74,1301.04L1422.74,1322.7L1443.73,1322.7L1443.73,1267.64C1443.73,1256.39 1434.6,1247.27 1423.36,1247.27L1404.36,1247.27ZM1374.23,1262.2L1380,1280.42L1385.77,1262.2L1380,1252.24L1374.23,1262.2ZM1371.33,1247.27L1365.64,1247.27L1365.64,1256.61C1365.64,1256.61 1365.91,1256.61 1365.91,1256.61L1371.33,1247.27ZM1394.36,1247.27L1388.67,1247.27L1394.09,1256.61C1394.09,1256.61 1394.36,1256.61 1394.36,1256.61L1394.36,1247.27ZM1380,1135C1353.15,1135 1331.35,1156.8 1331.35,1183.65C1331.35,1210.49 1353.15,1232.29 1380,1232.29C1406.85,1232.29 1428.65,1210.49 1428.65,1183.65C1428.65,1156.8 1406.85,1135 1380,1135ZM1380,1145C1401.33,1145 1418.65,1162.32 1418.65,1183.65C1418.65,1204.98 1401.33,1222.29 1380,1222.29C1358.67,1222.29 1341.35,1204.98 1341.35,1183.65C1341.35,1162.32 1358.67,1145 1380,1145Z"/></g></g></svg>