<svg class="w-full h-full" width="15" height="14" viewBox="0 0 15 14" fill="none" xmlns="http://www.w3.org/2000/svg">
<path d="M6.28295 1.09075L6.97276 0.400945C7.26484 0.108865 7.73714 0.108865 8.02611 0.400945L14.0666 6.43832C14.3587 6.7304 14.3587 7.2027 14.0666 7.49168L8.02611 13.5322C7.73403 13.8242 7.26173 13.8242 6.97276 13.5322L6.28295 12.8424C5.98776 12.5472 5.99397 12.0655 6.29538 11.7766L10.0396 8.20945H1.10939C0.696123 8.20945 0.363647 7.87698 0.363647 7.46371V6.46939C0.363647 6.05613 0.696123 5.72366 1.10939 5.72366H10.0396L6.29538 2.15654C5.99087 1.86756 5.98465 1.38594 6.28295 1.09075Z" fill="white"/>
</svg>
