<svg xmlns="http://www.w3.org/2000/svg" width="28" height="28" viewBox="0 0 28 28" fill="none">
  <path d="M2.86253 0L2.86193 0.000595505C2.4701 -0.00535941 2.01336 0.0476393 1.58043 0.144109C1.08558 0.253679 0.616929 0.423394 0.312037 0.5943C0.158996 0.680051 0.0488303 0.766993 0 0.820587L1.53994 6.21216C1.96988 5.67027 2.45759 5.22365 2.95423 4.89017C3.53126 4.50668 4.09698 4.25478 4.61506 4.1476C4.61506 3.36512 4.59719 2.60408 4.50787 1.95857C4.39473 1.18145 4.17439 0.587154 3.82305 0.237006C3.74564 0.156614 3.44909 0.0321565 3.02569 0.00595493C2.97269 0.00595493 2.91791 0 2.86253 0ZM4.59124 5.48566C4.19226 5.50948 3.74564 5.69409 3.33475 6.00374C2.52012 6.6171 1.90319 7.7128 1.88533 8.39762L4.6091 22.7073C5.06168 22.1416 5.75245 21.7723 6.52658 21.7723C7.2114 21.7723 7.83667 22.0641 8.28328 22.5286C8.58698 22.4631 8.90855 22.3976 9.25989 22.3321C9.34921 22.3142 9.44449 22.3023 9.53977 22.2845C8.73586 16.7762 7.43769 10.3985 5.65717 5.8906C5.34751 5.60476 5.04381 5.49162 4.7282 5.48566H4.59124ZM21.4436 7.83785L18.2518 17.8064L19.2761 18.1279L20.7052 13.6558L27.6784 15.8889L28 14.8646L21.0328 12.6375L22.4679 8.15942L21.4436 7.83785ZM19.1391 22.4453C17.8588 22.4512 16.382 22.5286 14.9111 22.6656C12.946 22.8383 10.9809 23.1062 9.4564 23.3861C9.24798 23.4219 9.05147 23.4635 8.86091 23.4993C8.93237 23.7256 8.9681 23.9638 8.9681 24.2139C8.9681 25.5537 7.86644 26.6554 6.52658 26.6554C6.19311 26.6554 5.87154 26.5839 5.57975 26.4648C5.39515 26.9948 5.25819 27.5129 5.18077 27.9059H22.3071C22.6048 27.9059 22.7656 27.7987 22.9443 27.5248C23.1289 27.2449 23.2658 26.7864 23.3194 26.2445C23.4326 25.1666 23.1944 23.7911 22.7775 22.9633C22.7954 22.9931 22.6108 22.8145 22.1701 22.7013C21.7295 22.5882 21.0923 22.5048 20.342 22.4691C19.9668 22.4512 19.5619 22.4453 19.1391 22.4453ZM6.52658 22.8442C5.76436 22.8442 5.15695 23.4516 5.15695 24.2139C5.15695 24.9761 5.76436 25.5835 6.52658 25.5835C7.28881 25.5835 7.89621 24.9761 7.89621 24.2139C7.89621 23.4516 7.28881 22.8442 6.52658 22.8442Z" fill="black"/>
</svg>