<svg class="w-full h-full" width="21" height="21" viewBox="0 0 21 21" fill="none" xmlns="http://www.w3.org/2000/svg">
<path d="M10.5 15.4737C7.73684 15.4737 5.52632 13.2632 5.52632 10.5C5.52632 7.73684 7.73684 5.52632 10.5 5.52632C13.2632 5.52632 15.4737 7.73684 15.4737 10.5C15.4737 13.2632 13.2632 15.4737 10.5 15.4737ZM10.5 6.63158C8.34474 6.63158 6.63158 8.34474 6.63158 10.5C6.63158 12.6553 8.34474 14.3684 10.5 14.3684C12.6553 14.3684 14.3684 12.6553 14.3684 10.5C14.3684 8.34474 12.6553 6.63158 10.5 6.63158Z" fill="white"/>
<path d="M11.9921 21H9.00789L8.17895 18.4579C7.62632 18.2921 7.07368 18.0711 6.57632 17.7947L4.14474 19.0105L2.04474 16.9105L3.26053 14.4789C2.98421 13.9816 2.76316 13.4289 2.59737 12.8763L0 11.9921V9.00789L2.54211 8.17895C2.7079 7.62632 2.92895 7.07368 3.20526 6.57631L1.98947 4.14474L4.08947 2.04474L6.52105 3.26053C7.01842 2.98421 7.57105 2.76316 8.12368 2.59737L9.00789 0H11.9921L12.8211 2.54211C13.3737 2.70789 13.9263 2.92895 14.4237 3.20526L16.8553 1.98947L18.9553 4.08947L17.7395 6.52105C18.0158 7.01842 18.2368 7.57105 18.4026 8.12368L20.9447 8.95263V11.9368L18.4026 12.7658C18.2368 13.3184 18.0158 13.8711 17.7395 14.3684L18.9553 16.8L16.8553 18.9L14.4237 17.6842C13.9263 17.9605 13.3737 18.1816 12.8211 18.3474L11.9921 21ZM9.78158 19.8947H11.2184L11.9921 17.5184L12.2684 17.4632C12.9316 17.2974 13.5395 17.0211 14.1474 16.6895L14.4237 16.5237L16.6342 17.6289L17.629 16.6342L16.5237 14.4237L16.6895 14.1474C17.0211 13.5947 17.2974 12.9316 17.4632 12.2684L17.5184 11.9921L19.8947 11.2184V9.78158L17.5184 9.00789L17.4632 8.73158C17.2974 8.06842 17.0211 7.46053 16.6895 6.85263L16.5237 6.57631L17.629 4.36579L16.6342 3.37105L14.4237 4.47632L14.1474 4.31053C13.5395 3.97895 12.9316 3.70263 12.2684 3.53684L11.9921 3.48158L11.2184 1.10526H9.78158L9.00789 3.48158L8.73158 3.53684C8.06842 3.70263 7.46053 3.97895 6.85263 4.31053L6.57632 4.47632L4.36579 3.37105L3.37105 4.36579L4.47632 6.57631L4.31053 6.85263C3.97895 7.40526 3.70263 8.06842 3.53684 8.73158L3.48158 9.00789L1.10526 9.78158V11.2184L3.48158 11.9921L3.53684 12.2684C3.70263 12.9316 3.97895 13.5395 4.31053 14.1474L4.47632 14.4237L3.37105 16.6342L4.36579 17.6289L6.57632 16.5237L6.85263 16.6895C7.46053 17.0211 8.06842 17.2974 8.73158 17.4632L9.00789 17.5184L9.78158 19.8947Z" fill="white"/>
<path fill-rule="evenodd" clip-rule="evenodd" d="M9.78158 19.8947H11.2184L11.9921 17.5184L12.2684 17.4632C12.9316 17.2974 13.5395 17.0211 14.1474 16.6895L14.4237 16.5237L16.6342 17.6289L17.629 16.6342L16.5237 14.4237L16.6895 14.1474C17.0211 13.5947 17.2974 12.9316 17.4632 12.2684L17.5184 11.9921L19.8947 11.2184V9.78158L17.5184 9.00789L17.4632 8.73158C17.2974 8.06842 17.0211 7.46053 16.6895 6.85263L16.5237 6.57631L17.629 4.36579L16.6342 3.37105L14.4237 4.47632L14.1474 4.31053C13.5395 3.97895 12.9316 3.70263 12.2684 3.53684L11.9921 3.48158L11.2184 1.10526H9.78158L9.00789 3.48158L8.73158 3.53684C8.06842 3.70263 7.46053 3.97895 6.85263 4.31053L6.57632 4.47632L4.36579 3.37105L3.37105 4.36579L4.47632 6.57631L4.31053 6.85263C3.97895 7.40526 3.70263 8.06842 3.53684 8.73158L3.48158 9.00789L1.10526 9.78158V11.2184L3.48158 11.9921L3.53684 12.2684C3.70263 12.9316 3.97895 13.5395 4.31053 14.1474L4.47632 14.4237L3.37105 16.6342L4.36579 17.6289L6.57632 16.5237L6.85263 16.6895C7.46053 17.0211 8.06842 17.2974 8.73158 17.4632L9.00789 17.5184L9.78158 19.8947ZM5.52632 10.5C5.52632 13.2632 7.73684 15.4737 10.5 15.4737C13.2632 15.4737 15.4737 13.2632 15.4737 10.5C15.4737 7.73684 13.2632 5.52632 10.5 5.52632C7.73684 5.52632 5.52632 7.73684 5.52632 10.5Z" fill="white"/>
</svg>
