<svg width="14" height="15" viewBox="0 0 14 15" fill="none" xmlns="http://www.w3.org/2000/svg">
    <path d="M7.01847 10.343C5.1715 10.343 3.69393 8.86543 3.69393 7.01847C3.69393 5.1715 5.1715 3.69393 7.01847 3.69393C8.86544 3.69393 10.343 5.1715 10.343 7.01847C10.343 8.86543 8.86544 10.343 7.01847 10.343ZM7.01847 4.43272C5.57784 4.43272 4.43272 5.57784 4.43272 7.01847C4.43272 8.4591 5.57784 9.60422 7.01847 9.60422C8.4591 9.60422 9.60422 8.4591 9.60422 7.01847C9.60422 5.57784 8.4591 4.43272 7.01847 4.43272Z" fill="white"/>
    <path d="M8.01583 14.0369H6.02111L5.46702 12.3377C5.09762 12.2269 4.72823 12.0792 4.39578 11.8945L2.77045 12.7071L1.36675 11.3034L2.17942 9.6781C1.99472 9.34564 1.84697 8.97625 1.73615 8.60686L0 8.01583V6.02111L1.69921 5.46702C1.81003 5.09762 1.95778 4.72823 2.14248 4.39578L1.32982 2.77045L2.73351 1.36675L4.35884 2.17942C4.69129 1.99472 5.06069 1.84697 5.43008 1.73615L6.02111 0H8.01583L8.56992 1.69921C8.93931 1.81003 9.30871 1.95778 9.64116 2.14248L11.2665 1.32982L12.6702 2.73351L11.8575 4.35884C12.0422 4.69129 12.19 5.06069 12.3008 5.43008L14 5.98417V7.97889L12.3008 8.53298C12.19 8.90237 12.0422 9.27177 11.8575 9.60422L12.6702 11.2296L11.2665 12.6332L9.64116 11.8206C9.30871 12.0053 8.93931 12.153 8.56992 12.2639L8.01583 14.0369ZM6.53826 13.2982H7.49868L8.01583 11.7098L8.20053 11.6728C8.6438 11.562 9.05013 11.3773 9.45646 11.1557L9.64116 11.0449L11.1187 11.7836L11.7836 11.1187L11.0449 9.64116L11.1557 9.45646C11.3773 9.08707 11.562 8.6438 11.6728 8.20053L11.7098 8.01583L13.2982 7.49868V6.53826L11.7098 6.02111L11.6728 5.83641C11.562 5.39314 11.3773 4.98681 11.1557 4.58047L11.0449 4.39578L11.7836 2.91821L11.1187 2.2533L9.64116 2.99208L9.45646 2.88127C9.05013 2.65963 8.6438 2.47493 8.20053 2.36412L8.01583 2.32718L7.49868 0.738786H6.53826L6.02111 2.32718L5.83641 2.36412C5.39314 2.47493 4.98681 2.65963 4.58047 2.88127L4.39578 2.99208L2.91821 2.2533L2.2533 2.91821L2.99208 4.39578L2.88127 4.58047C2.65963 4.94987 2.47493 5.39314 2.36412 5.83641L2.32718 6.02111L0.738786 6.53826V7.49868L2.32718 8.01583L2.36412 8.20053C2.47493 8.6438 2.65963 9.05013 2.88127 9.45646L2.99208 9.64116L2.2533 11.1187L2.91821 11.7836L4.39578 11.0449L4.58047 11.1557C4.98681 11.3773 5.39314 11.562 5.83641 11.6728L6.02111 11.7098L6.53826 13.2982Z" fill="white"/>
    <path fill-rule="evenodd" clip-rule="evenodd" d="M6.53826 13.2982H7.49868L8.01583 11.7098L8.20053 11.6728C8.6438 11.562 9.05013 11.3773 9.45646 11.1557L9.64116 11.0449L11.1187 11.7836L11.7836 11.1187L11.0449 9.64116L11.1557 9.45646C11.3773 9.08707 11.562 8.6438 11.6728 8.20053L11.7098 8.01583L13.2982 7.49868V6.53826L11.7098 6.02111L11.6728 5.83641C11.562 5.39314 11.3773 4.98681 11.1557 4.58047L11.0449 4.39578L11.7836 2.91821L11.1187 2.2533L9.64116 2.99208L9.45646 2.88127C9.05013 2.65963 8.6438 2.47493 8.20053 2.36412L8.01583 2.32718L7.49868 0.738786H6.53826L6.02111 2.32718L5.83641 2.36412C5.39314 2.47493 4.98681 2.65963 4.58047 2.88127L4.39578 2.99208L2.91821 2.2533L2.2533 2.91821L2.99208 4.39578L2.88127 4.58047C2.65963 4.94987 2.47493 5.39314 2.36412 5.83641L2.32718 6.02111L0.738786 6.53826V7.49868L2.32718 8.01583L2.36412 8.20053C2.47493 8.6438 2.65963 9.05013 2.88127 9.45646L2.99208 9.64116L2.2533 11.1187L2.91821 11.7836L4.39578 11.0449L4.58047 11.1557C4.98681 11.3773 5.39314 11.562 5.83641 11.6728L6.02111 11.7098L6.53826 13.2982ZM3.69393 7.01847C3.69393 8.86543 5.1715 10.343 7.01847 10.343C8.86544 10.343 10.343 8.86543 10.343 7.01847C10.343 5.1715 8.86544 3.69393 7.01847 3.69393C5.1715 3.69393 3.69393 5.1715 3.69393 7.01847Z" fill="white"/>
</svg>
