<svg xmlns="http://www.w3.org/2000/svg" width="33" height="33" viewBox="0 0 33 33" fill="none">
    <path d="M23.6722 16.0187L21.783 17.9119C21.6527 18.0425 21.4518 18.0655 21.2978 17.9639C20.3675 17.3502 17.1141 15.1958 13.8939 13.0631C13.6894 12.9276 13.6604 12.6388 13.8339 12.4653L15.7273 10.5719C15.8577 10.4415 16.0596 10.4194 16.2134 10.521C17.3188 11.2509 21.6135 14.097 23.615 15.4232C23.8194 15.5586 23.8453 15.8452 23.6722 16.0187Z" fill="black"/>
    <path d="M7.25802 19.5897L13.4097 25.7365C13.5613 25.8881 13.5614 26.1339 13.4098 26.2854L12.0755 27.6197C11.6097 28.0856 10.8544 28.0857 10.3883 27.6201L5.37449 22.6115C4.91391 22.1458 4.91391 21.3903 5.37449 20.9246L6.70931 19.5898C6.86081 19.4383 7.10645 19.4382 7.25802 19.5897Z" fill="black"/>
    <path d="M18.7399 20.9553L16.8473 22.8479C16.7169 22.9783 16.5143 23.0001 16.3605 22.8982C15.1812 22.1176 10.3752 18.9361 8.95965 17.9981C8.75514 17.8626 8.72878 17.5754 8.90226 17.402L10.7949 15.5094C10.9254 15.3788 11.1283 15.3573 11.2821 15.4593C12.3762 16.1844 16.593 18.9759 18.6828 20.3594C18.8874 20.4948 18.9134 20.7818 18.7399 20.9553Z" fill="black"/>
    <path d="M28.6117 11.0828L26.7135 12.9769C26.5832 13.107 26.3827 13.1297 26.229 13.0283C25.2995 12.4154 22.0479 10.2603 18.8301 8.12732C18.6255 7.99169 18.5968 7.70264 18.7705 7.52925L20.6674 5.63634C20.798 5.50605 21.0007 5.48465 21.1544 5.58656C22.2479 6.31135 26.4648 9.10287 28.5549 10.4865C28.7596 10.6221 28.7855 10.9093 28.6117 11.0828Z" fill="black"/>
    <path d="M31.9081 1.09179C31.1992 0.388068 30.2626 0 29.2692 0C29.264 0 29.264 0 29.264 0C28.2654 0 27.3289 0.388068 26.6252 1.09179C25.9215 1.79548 25.5282 2.75788 25.5282 3.74618L23.2361 6.03836C24.5555 6.90763 26.3096 8.06666 27.7273 9.00837L29.264 7.46646H29.2796C30.2575 7.46646 31.2095 7.07321 31.9081 6.37467C32.6117 5.67098 32.9998 4.72926 32.9998 3.73581C32.9998 2.7372 32.6118 1.79548 31.9081 1.09179ZM29.2019 5.28809C28.9174 5.27773 28.5138 5.1846 28.1619 4.83793C27.5772 4.24806 27.5255 3.26494 28.1619 2.62852C28.7725 2.02314 29.7607 2.02314 30.3713 2.62852C31.3752 3.63233 30.6094 5.36054 29.2019 5.28809Z" fill="black"/>
    <path d="M5.47306 23.8015L4.0864 25.1882C2.97904 25.1106 1.908 25.5142 1.12157 26.3059C-0.373857 27.8012 -0.373857 30.2331 1.12157 31.7285C1.84591 32.4529 2.80832 32.8513 3.83287 32.8564C3.83805 32.8564 3.83805 32.8564 3.83805 32.8564C4.86254 32.8564 5.82488 32.458 6.54935 31.7336C7.26333 31.0196 7.65658 30.0675 7.66694 29.0637L9.19849 27.527L5.47306 23.8015ZM4.74354 29.9278C4.24159 30.4246 3.42926 30.4246 2.92738 29.9227C2.42543 29.4259 2.42543 28.6084 2.92738 28.1117C3.42408 27.6098 4.23641 27.6046 4.74354 28.1065C5.24543 28.6136 5.24025 29.4311 4.74354 29.9278Z" fill="black"/>
    <path d="M9.02051 20.254L12.7496 23.9799L14.2755 22.4509L9.79431 19.4802L9.02051 20.254Z" fill="black"/>
    <path d="M13.3656 15.9091C14.7406 16.8199 16.621 18.0648 17.8515 18.8793L19.2148 17.516C18.0296 16.7321 16.4192 15.6666 14.728 14.5468L13.3656 15.9091Z" fill="black"/>
    <path d="M18.3029 10.9729C19.686 11.8888 21.5608 13.1317 22.7864 13.9443L24.1481 12.5827C22.9645 11.799 21.3564 10.7324 19.6663 9.61227L18.3029 10.9729Z" fill="black"/>
</svg>